ffmpeg started on 2016-11-26 at 23:30:41
Report written to "Output/NVENCh264/results/ffmpeg/sintelll15000k.log"
Command line:
Tools/ffmpeg/ffmpeg -benchmark -y -i Input/y4m/sintel.y4m -c:v h264_nvenc -preset ll -b:v 15000k -an Output/NVENCh264/encoded/sintelll15000k.mkv
ffmpeg version N-82227-gdb23fde Copyright (c) 2000-2016 the FFmpeg developers
  built with gcc 5.4.0 (Ubuntu 5.4.0-6ubuntu1~16.04.2) 20160609
  configuration: --prefix=/home/jaroslav/ffmpeg_build --pkg-config-flags=--static --extra-cflags=-I/home/jaroslav/ffmpeg_build/include --extra-ldflags=-L/home/jaroslav/ffmpeg_build/lib --bindir=/home/jaroslav/bin --enable-gpl --enable-libass --enable-libfdk-aac --enable-libfreetype --enable-libmp3lame --enable-libopus --enable-libtheora --enable-libvorbis --enable-libvpx --enable-libx264 --enable-libx265 --enable-nvenc --enable-libmfx --enable-libxvid --enable-libgsm --enable-libopencore-amrnb --enable-version3 --enable-nonfree
  libavutil      55. 35.100 / 55. 35.100
  libavcodec     57. 66.101 / 57. 66.101
  libavformat    57. 57.100 / 57. 57.100
  libavdevice    57.  2.100 / 57.  2.100
  libavfilter     6. 66.100 /  6. 66.100
  libswscale      4.  3.100 /  4.  3.100
  libswresample   2.  4.100 /  2.  4.100
  libpostproc    54.  2.100 / 54.  2.100
Input #0, yuv4mpegpipe, from 'Input/y4m/sintel.y4m':
  Duration: 00:00:20.83, start: 0.000000, bitrate: 2057307 kb/s
    Stream #0:0: Video: rawvideo (I420 / 0x30323449), yuv420p(progressive), 4096x1744, SAR 1:1 DAR 256:109, 24 fps, 24 tbr, 24 tbn, 24 tbc
[h264_nvenc @ 0x40161c0] The variable bitrate rate-control requires the 'qmin' and/or 'qmax' option set.
Output #0, matroska, to 'Output/NVENCh264/encoded/sintelll15000k.mkv':
  Metadata:
    encoder         : Lavf57.57.100
    Stream #0:0: Video: h264 (h264_nvenc) (Main) (H264 / 0x34363248), yuv420p, 4096x1744 [SAR 1:1 DAR 256:109], q=-1--1, 15000 kb/s, 24 fps, 1k tbn, 24 tbc
    Metadata:
      encoder         : Lavc57.66.101 h264_nvenc
    Side data:
      cpb: bitrate max/min/avg: 0/0/15000000 buffer size: 30000000 vbv_delay: -1
Stream mapping:
  Stream #0:0 -> #0:0 (rawvideo (native) -> h264 (h264_nvenc))
Press [q] to stop, [?] for help
frame=    3 fps=2.0 q=0.0 size=       0kB time=00:00:00.00 bitrate=N/A speed=   0x    frame=   24 fps= 12 q=0.0 size=       0kB time=00:00:00.00 bitrate=N/A speed=   0x    frame=   45 fps= 18 q=31.0 size=       1kB time=00:00:00.58 bitrate=  10.2kbits/s speed=0.231x    frame=   66 fps= 22 q=30.0 size=       1kB time=00:00:01.45 bitrate=   4.1kbits/s speed=0.481x    frame=   87 fps= 25 q=29.0 size=       1kB time=00:00:02.33 bitrate=   2.6kbits/s speed=0.659x    frame=  107 fps= 26 q=25.0 size=    5155kB time=00:00:03.16 bitrate=13330.8kbits/s speed=0.783x    frame=  128 fps= 28 q=26.0 size=    5155kB time=00:00:04.04 bitrate=10445.7kbits/s speed=0.887x    frame=  148 fps= 29 q=26.0 size=    8815kB time=00:00:04.87 bitrate=14810.2kbits/s speed=0.964x    frame=  169 fps= 30 q=28.0 size=    8815kB time=00:00:05.75 bitrate=12556.9kbits/s speed=1.03x    frame=  190 fps= 24 q=26.0 size=    8815kB time=00:00:06.62 bitrate=10898.7kbits/s speed=0.839x    frame=  191 fps= 17 q=26.0 size=    8815kB time=00:00:06.66 bitrate=10830.0kbits/s speed=0.606x    frame=  211 fps= 18 q=25.0 size=    8815kB time=00:00:07.50 bitrate=9627.3kbits/s speed=0.652x    frame=  231 fps= 19 q=25.0 size=   13954kB time=00:00:08.33 bitrate=13716.4kbits/s speed=0.694x    frame=  252 fps= 20 q=28.0 size=   13954kB time=00:00:09.20 bitrate=12413.1kbits/s speed=0.736x    frame=  273 fps= 21 q=24.0 size=   13954kB time=00:00:10.08 bitrate=11336.0kbits/s speed=0.774x    frame=  293 fps= 22 q=23.0 size=   19095kB time=00:00:10.91 bitrate=14327.2kbits/s speed=0.806x    frame=  314 fps= 22 q=25.0 size=   20202kB time=00:00:11.79 bitrate=14033.4kbits/s speed=0.839x    frame=  335 fps= 23 q=23.0 size=   20202kB time=00:00:12.66 bitrate=13064.1kbits/s speed=0.87x    frame=  356 fps= 24 q=22.0 size=   20202kB time=00:00:13.54 bitrate=12220.0kbits/s speed=0.898x    frame=  376 fps= 24 q=22.0 size=   25343kB time=00:00:14.37 bitrate=14441.2kbits/s speed=0.923x    frame=  397 fps= 25 q=23.0 size=   25343kB time=00:00:15.25 bitrate=13612.6kbits/s speed=0.948x    frame=  418 fps= 25 q=20.0 size=   25343kB time=00:00:16.12 bitrate=12874.0kbits/s speed=0.971x    frame=  438 fps= 26 q=26.0 size=   30525kB time=00:00:16.95 bitrate=14744.9kbits/s speed=0.991x    frame=  459 fps= 26 q=26.0 size=   32053kB time=00:00:17.83 bitrate=14723.3kbits/s speed=1.01x    frame=  480 fps= 26 q=26.0 size=   32053kB time=00:00:18.70 bitrate=14034.7kbits/s speed=1.03x    frame=  500 fps= 27 q=26.0 size=   32053kB time=00:00:19.54 bitrate=13435.8kbits/s speed=1.05x    frame=  500 fps= 27 q=26.0 Lsize=   38377kB time=00:00:20.79 bitrate=15119.5kbits/s speed=1.11x    
video:38372kB audio:0kB subtitle:0kB other streams:0kB global headers:0kB muxing overhead: 0.012850%
bench: utime=1.084s
bench: maxrss=1194280kB
